Coordinates
version=1
nRows=20
nColumns=30
inDegrees=yes

Units are S.I. units (second, meters, Newtons, ...)
Angles are in degrees.

endheader
time	floatyaw	floatroll	floatpitch	floatx	floaty	floatz	pro_sup_l	deviation_l	flexion_l	cmc_flexion_l	cmc_abduction_l	mp_flexion_l	ip_flexion_l	2mcp_flexion_l	2mcp_abduction_l	2pm_flexion_l	2md_flexion_l	3mcp_flexion_l	3mcp_abduction_l	3pm_flexion_l	3md_flexion_l	4mcp_flexion_l	4mcp_abduction_l	4pm_flexion_l	4md_flexion_l	5mcp_flexion_l	5mcp_abduction_l	5pm_flexion_l	5md_flexion_l
-0.495000	-3.995636	-4.876138	96.430707	-0.103990	-0.182991	-0.037192	85.614890	0.238125	-3.358847	15.972290	1.326509	-22.133330	-34.780926	37.844534	9.834929	48.542344	34.840429	22.087320	4.805985	47.842172	33.622182	10.455811	-5.180046	62.916022	43.626989	2.659593	-8.202274	63.477384	43.428330
-0.485000	-3.995636	-4.876138	96.430707	-0.104007	-0.183024	-0.037191	85.549998	0.249720	-3.382330	15.969159	1.404252	-22.158298	-34.802061	37.847243	9.812200	48.517721	34.816887	22.128290	4.797737	47.849471	33.617870	10.508291	-5.179923	62.910993	43.630145	2.723132	-8.176355	63.455936	43.424455
-0.475000	-3.995636	-4.876138	96.430707	-0.104017	-0.183046	-0.037200	85.497957	0.266405	-3.392109	15.963605	1.474040	-22.176638	-34.821012	37.845007	9.789693	48.493117	34.795268	22.156723	4.793535	47.850700	33.610021	10.545755	-5.178404	62.892116	43.641001	2.785409	-8.159136	63.427414	43.416358
-0.465000	-3.995636	-4.876138	96.430707	-0.104023	-0.183053	-0.037209	85.454700	0.283110	-3.387173	15.948906	1.536315	-22.187989	-34.835368	37.845910	9.769868	48.474870	34.781264	22.172279	4.793277	47.849274	33.601499	10.570483	-5.176299	62.860426	43.657245	2.841664	-8.149779	63.388026	43.402205
-0.455000	-3.995636	-4.876138	96.430707	-0.104030	-0.183037	-0.037210	85.420733	0.292690	-3.365821	15.920572	1.599364	-22.193730	-34.842190	37.854750	9.756808	48.468903	34.778202	22.174646	4.796916	47.850219	33.596672	10.584977	-5.175319	62.824484	43.674468	2.891969	-8.147049	63.335679	43.381748
-0.445000	-3.995636	-4.876138	96.430707	-0.104037	-0.182987	-0.037194	85.400732	0.288320	-3.325614	15.875608	1.674857	-22.197049	-34.839724	37.872834	9.753714	48.479181	34.786760	22.164848	4.805007	47.860137	33.601122	10.593463	-5.176828	62.797771	43.689787	2.944736	-8.150530	63.271979	43.356068
-0.435000	-3.995636	-4.876138	96.430707	-0.104037	-0.182890	-0.037154	85.400468	0.265314	-3.264139	15.811552	1.772428	-22.201878	-34.828167	37.898244	9.758897	48.505922	34.805246	22.146933	4.818319	47.886488	33.620646	10.603152	-5.180248	62.793860	43.704414	3.016657	-8.160839	63.203530	43.327342
-0.425000	-3.995636	-4.876138	96.430707	-0.104010	-0.182734	-0.037084	85.422698	0.221424	-3.179932	15.726875	1.895012	-22.210938	-34.809405	37.925812	9.762640	48.544312	34.830062	22.129086	4.836424	47.935901	33.659392	10.623772	-5.182349	62.821390	43.723296	3.126817	-8.177899	63.141617	43.298649
-0.415000	-3.995636	-4.876138	96.430707	-0.103923	-0.182508	-0.036972	85.464230	0.155656	-3.072776	15.623339	2.037298	-22.223718	-34.786106	37.946973	9.747563	48.585035	34.856471	22.123096	4.856093	48.011394	33.717394	10.665206	-5.178240	62.880068	43.751772	3.287244	-8.198148	63.099375	43.273334
-0.405000	-3.995636	-4.876138	96.430707	-0.103732	-0.182196	-0.036801	85.516002	0.067028	-2.943048	15.508870	2.188960	-22.235634	-34.760665	37.950275	9.693552	48.617661	34.880051	22.141711	4.870926	48.109336	33.788749	10.734478	-5.163716	62.958785	43.791212	3.496270	-8.213319	63.086705	43.253477
-0.395000	-3.995636	-4.876138	96.430707	-0.103389	-0.181781	-0.036546	85.566693	-0.044921	-2.790546	15.398391	2.342006	-22.239477	-34.734477	37.923033	9.585532	48.636272	34.898828	22.194656	4.873113	48.218206	33.862098	10.834083	-5.137592	63.037262	43.836444	3.740505	-8.212749	63.104623	43.237719
-0.385000	-3.995636	-4.876138	96.430707	-0.102848	-0.181235	-0.036184	85.608291	-0.177337	-2.613850	15.310969	2.498962	-22.229082	-34.707985	37.854019	9.420407	48.644504	34.915198	22.285389	4.856777	48.321292	33.924271	10.963091	-5.102592	63.091701	43.876682	4.005218	-8.188415	63.141546	43.219465
-0.375000	-3.995636	-4.876138	96.430707	-0.102071	-0.180530	-0.035691	85.640223	-0.320760	-2.411049	15.264010	2.678139	-22.203433	-34.681427	37.736505	9.209825	48.656476	34.936331	22.410604	4.821046	48.403585	33.965973	11.120644	-5.064216	63.102577	43.899671	4.286348	-8.139524	63.173756	43.186854
-0.365000	-3.995636	-4.876138	96.430707	-0.101026	-0.179637	-0.035050	85.668600	-0.458394	-2.181499	15.266867	2.913935	-22.168558	-34.655738	37.570501	8.977442	48.692191	34.972301	22.563083	4.771069	48.460246	33.986835	11.309905	-5.028326	63.061175	43.897018	4.596144	-8.073493	63.170898	43.125364
-0.355000	-3.995636	-4.876138	96.430707	-0.099684	-0.178532	-0.034252	85.699951	-0.569652	-1.927315	15.316539	3.251982	-22.135809	-34.633236	37.362848	8.751222	48.769510	35.032381	22.736661	4.716429	48.502109	33.996946	11.540317	-4.998950	62.972204	43.868188	4.959405	-8.002167	63.105622	43.022798
-0.345000	-3.995636	-4.876138	96.430707	-0.098010	-0.177194	-0.033289	85.732834	-0.636913	-1.653402	15.397612	3.739848	-22.117432	-34.618211	37.124358	8.552584	48.897137	35.120981	22.930952	4.667700	48.554151	34.013456	11.826979	-4.977407	62.851814	43.821276	5.404073	-7.935009	62.964727	42.874876
-0.335000	-3.995636	-4.876138	96.430707	-0.095951	-0.175608	-0.032148	85.752698	-0.652407	-1.365961	15.487588	4.414531	-22.121729	-34.617333	36.864407	8.385395	49.072207	35.235100	23.153430	4.632634	48.645615	34.053058	12.187373	-4.962649	62.721622	43.769948	5.953111	-7.873035	62.757119	42.688421
-0.325000	-3.995636	-4.876138	96.430707	-0.093438	-0.173757	-0.030809	85.733295	-0.622108	-1.070534	15.566604	5.289330	-22.149885	-34.638974	36.584813	8.229269	49.282861	35.364720	23.417607	4.613622	48.794832	34.123434	12.636657	-4.951810	62.599703	43.727334	6.622044	-7.807134	62.512401	42.479051
-0.315000	-3.995636	-4.876138	96.430707	-0.090394	-0.171629	-0.029248	85.643306	-0.564697	-0.771253	15.627582	6.344852	-22.195590	-34.690569	36.275925	8.041800	49.513176	35.496244	23.737752	4.607637	48.996070	34.217891	13.182917	-4.940305	62.490863	43.699161	7.420909	-7.722016	62.266784	42.262777
-0.305000	-3.995636	-4.876138	96.430707	-0.086743	-0.169213	-0.027429	85.453783	-0.504974	-0.472662	15.681461	7.530585	-22.247492	-34.774807	35.917787	7.771699	49.747737	35.617582	24.122059	4.608624	49.216745	34.316482	13.823436	-4.921848	62.381062	43.679634	8.355356	-7.603685	62.041767	42.045644
